<svg width="34" height="41" viewBox="0 0 34 41" fill="none" xmlns="http://www.w3.org/2000/svg">
<path d="M28.6667 18.5376H5.33333C3.49238 18.5376 2 20.183 2 22.2126V35.0751C2 37.1047 3.49238 38.7501 5.33333 38.7501H28.6667C30.5076 38.7501 32 37.1047 32 35.0751V22.2126C32 20.183 30.5076 18.5376 28.6667 18.5376Z" stroke="#FF6347" stroke-width="4" stroke-linecap="round" stroke-linejoin="round"/>
<path d="M8.66663 18.5375V11.1875C8.66663 8.75082 9.5446 6.41395 11.1074 4.69096C12.6702 2.96797 14.7898 2 17 2C19.2101 2 21.3297 2.96797 22.8925 4.69096C24.4553 6.41395 25.3333 8.75082 25.3333 11.1875V18.5375" stroke="#FF6347" stroke-width="4" stroke-linecap="round" stroke-linejoin="round"/>
</svg>
