<svg width="30" height="30" viewBox="0 0 30 30" fill="none" xmlns="http://www.w3.org/2000/svg">
<path d="M27.9992 21.466V25.38C28.0007 25.7434 27.9261 26.1031 27.7802 26.436C27.6344 26.7689 27.4205 27.0678 27.1522 27.3134C26.8839 27.559 26.5672 27.7461 26.2223 27.8625C25.8774 27.9789 25.5119 28.0221 25.1493 27.9894C21.1266 27.5532 17.2626 26.1813 13.8676 23.984C10.709 21.9809 8.03104 19.3083 6.02394 16.1559C3.81462 12.7523 2.43971 8.8771 2.01061 4.84433C1.97794 4.48355 2.02091 4.11992 2.13676 3.77661C2.25262 3.43331 2.43884 3.11783 2.68355 2.85029C2.92827 2.58274 3.22612 2.36897 3.55815 2.2226C3.89018 2.07623 4.24911 2.00047 4.61208 2.00013H8.5339C9.16833 1.99389 9.78338 2.21811 10.2644 2.63098C10.7455 3.04386 11.0597 3.61721 11.1484 4.24418C11.314 5.49676 11.621 6.72664 12.0635 7.91034C12.2394 8.37732 12.2775 8.88483 12.1732 9.37273C12.069 9.86064 11.8267 10.3085 11.4753 10.6632L9.81503 12.3202C11.676 15.5865 14.3858 18.291 17.6587 20.1483L19.3189 18.4913C19.6743 18.1405 20.1231 17.8988 20.612 17.7947C21.1008 17.6907 21.6093 17.7287 22.0772 17.9042C23.2633 18.3459 24.4956 18.6523 25.7507 18.8175C26.3857 18.9069 26.9657 19.2261 27.3802 19.7145C27.7948 20.2028 28.0151 20.8261 27.9992 21.466Z" stroke="#FF6347" stroke-width="4" stroke-linecap="round" stroke-linejoin="round"/>
</svg>
